<svg id="Layer_1" data-name="Layer 1" xmlns="http://www.w3.org/2000/svg" viewBox="0 0 441.76 441.63"><path d="M442.08,131.65H55.66a27.62,27.62,0,0,1-27.6-27.6V48.85a27.64,27.64,0,0,1,27.6-27.61H442.08a27.64,27.64,0,0,1,27.6,27.61v55.2a27.62,27.62,0,0,1-27.6,27.6Zm-386.42-92a9.2,9.2,0,0,0-9.2,9.2v55.2a9.22,9.22,0,0,0,9.2,9.2H442.08a9.22,9.22,0,0,0,9.2-9.2V48.85a9.2,9.2,0,0,0-9.2-9.2Z" transform="translate(-28.06 -21.24)" style="fill:#666"/><path d="M460.48,186.86h-184a9.41,9.41,0,0,1-3.56-.66,9.2,9.2,0,0,1,0-17.08,9,9,0,0,1,3.56-.66h184a9.12,9.12,0,0,1,3.57.66,9.24,9.24,0,0,1,3,2,9.39,9.39,0,0,1,2,3,9.14,9.14,0,0,1,0,7.11,9.39,9.39,0,0,1-2,3,9.27,9.27,0,0,1-3,2,9.5,9.5,0,0,1-3.57.66Z" transform="translate(-28.06 -21.24)" style="fill:#666"/><path d="M460.48,242.06h-184a9.17,9.17,0,0,1-6.59-2.65,9.05,9.05,0,0,1-2-3,9.23,9.23,0,0,1,0-7.1,9.05,9.05,0,0,1,2-3,9.17,9.17,0,0,1,6.59-2.65h184a9.17,9.17,0,0,1,6.6,2.65,9.18,9.18,0,0,1,2,3,9.11,9.11,0,0,1,0,7.1,9.18,9.18,0,0,1-2,3,9.17,9.17,0,0,1-6.6,2.65Z" transform="translate(-28.06 -21.24)" style="fill:#666"/><path d="M460.48,297.26h-184a9,9,0,0,1-3.56-.66,9.21,9.21,0,0,1,0-17.08,9.41,9.41,0,0,1,3.56-.66h184a9.5,9.5,0,0,1,3.57.66,9.27,9.27,0,0,1,3,2,9.39,9.39,0,0,1,2,3,9.11,9.11,0,0,1,0,7.1,9.1,9.1,0,0,1-5.05,5,9.12,9.12,0,0,1-3.57.66Z" transform="translate(-28.06 -21.24)" style="fill:#666"/><path d="M460.48,352.47h-184a9.23,9.23,0,0,1-3.56-.67,9.09,9.09,0,0,1-3-2,9.19,9.19,0,0,1,3-15.09,9,9,0,0,1,3.56-.66h184a9.12,9.12,0,0,1,3.57.66,9.24,9.24,0,0,1,3,2,9.39,9.39,0,0,1,2,3,9.14,9.14,0,0,1,0,7.11,9.39,9.39,0,0,1-2,3,9.09,9.09,0,0,1-3,2,9.32,9.32,0,0,1-3.57.67Z" transform="translate(-28.06 -21.24)" style="fill:#666"/><path d="M460.48,407.67h-184a9.17,9.17,0,0,1-6.59-2.65,9.05,9.05,0,0,1-2-3,9.23,9.23,0,0,1,0-7.1,9.24,9.24,0,0,1,5.06-5,9.22,9.22,0,0,1,3.56-.66h184a9.31,9.31,0,0,1,3.57.66,9.18,9.18,0,0,1,5.05,5,9.11,9.11,0,0,1,0,7.1,9.18,9.18,0,0,1-2,3,9.17,9.17,0,0,1-6.6,2.65Z" transform="translate(-28.06 -21.24)" style="fill:#666"/><path d="M202.87,297.26H55.66a27.64,27.64,0,0,1-27.6-27.6V196.05a27.64,27.64,0,0,1,27.6-27.6H202.87a27.64,27.64,0,0,1,27.6,27.6v73.61a27.64,27.64,0,0,1-27.6,27.6ZM55.66,186.86a9.22,9.22,0,0,0-9.2,9.2v73.6a9.22,9.22,0,0,0,9.2,9.2H202.87a9.22,9.22,0,0,0,9.2-9.2V196.05a9.22,9.22,0,0,0-9.2-9.19Z" transform="translate(-28.06 -21.24)" style="fill:#666"/><path d="M202.87,462.87H55.66a27.64,27.64,0,0,1-27.6-27.6V361.66a27.64,27.64,0,0,1,27.6-27.6H202.87a27.64,27.64,0,0,1,27.6,27.6v73.61a27.64,27.64,0,0,1-27.6,27.6ZM55.66,352.47a9.22,9.22,0,0,0-9.2,9.2v73.6a9.22,9.22,0,0,0,9.2,9.2H202.87a9.22,9.22,0,0,0,9.2-9.2V361.66a9.22,9.22,0,0,0-9.2-9.19Z" transform="translate(-28.06 -21.24)" style="fill:#666"/><path d="M460.48,462.87h-184a9,9,0,0,1-3.56-.66,9.2,9.2,0,0,1,3.56-17.74h184a9.18,9.18,0,0,1,8.62,5.65,9.11,9.11,0,0,1,0,7.1,9.1,9.1,0,0,1-5.05,5,9.12,9.12,0,0,1-3.57.66Z" transform="translate(-28.06 -21.24)" style="fill:#666"/></svg>