<svg id="Layer_1" data-name="Layer 1" xmlns="http://www.w3.org/2000/svg" viewBox="0 0 414.2 413.92"><path d="M405.92,233.93,355.81,223.5c-2.59-42.3-19.76-78.38-55.78-104.06-26.59-19-56.56-25.85-88.84-22.92C152,101.91,101,155.11,96.37,213.45,91.1,279.69,138.34,351.84,224,356.2c3.4,16.53,6.76,32.89,10.11,49.2-56,5.59-130.73-24.34-168.26-95.2-36.5-68.92-25.14-153.68,27.76-208.67C149,43.93,231.72,28,301.93,61.07,374.49,95.28,411.16,169.16,405.92,233.93Z" transform="translate(-44.63 -44.02)" style="fill:#3958a6"/><path d="M193.94,296.51l-39.36-38.65c13.34-12.67,26.49-24.55,38.78-37.25a23.41,23.41,0,0,0,6.08-14.39c.6-24.69.26-49.41.29-74.11,0-3,.25-6.08.41-9.53H250.7c.25,2.6.68,5,.68,7.4.05,33.15.09,66.3,0,99.44,0,3-.29,6.81-2.07,8.73C231.21,257.58,212.81,276.7,193.94,296.51Z" transform="translate(-44.63 -44.02)" style="fill:#fdbb11"/><circle cx="311.1" cy="310.83" r="103.1" style="fill:#e88f24"/><path d="M366.36,404a15.07,15.07,0,0,0,5.79-1.27,30,30,0,0,0,6-3.4,40.78,40.78,0,0,0,5.67-5,42.89,42.89,0,0,0,4.77-5.95,31.3,31.3,0,0,0,3.28-6.33,17.49,17.49,0,0,0,1.2-6.14,20.18,20.18,0,0,0-2-8.71l-1.33.38a15,15,0,0,1-1,3.69,10.85,10.85,0,0,1-5.66,5.79,12.07,12.07,0,0,1-5,.95,14.31,14.31,0,0,1-5.66-1.08,13.31,13.31,0,0,1-4.36-2.92,12.89,12.89,0,0,1-2.8-4.3,13.7,13.7,0,0,1-1-5.19,17.57,17.57,0,0,1,.77-4.77,12.47,12.47,0,0,1,2.86-5,16.6,16.6,0,0,1,5.76-3.92,24.29,24.29,0,0,1,9.51-1.59A27.68,27.68,0,0,1,395,351.64a23.48,23.48,0,0,1,8.18,6.14,25.19,25.19,0,0,1,4.77,8.78,34.14,34.14,0,0,1,1.56,10.3,35.89,35.89,0,0,1-2,12.19,43,43,0,0,1-5.44,10.5,49.42,49.42,0,0,1-7.76,8.62,56.52,56.52,0,0,1-9,6.49,45.34,45.34,0,0,1-9.16,4.07,28.31,28.31,0,0,1-8.28,1.4,27.39,27.39,0,0,1-5.24-.6,28.89,28.89,0,0,1-6.27-2.1,29.22,29.22,0,0,1-6.37-4.08,26.93,26.93,0,0,1-5.59-6.52,35.38,35.38,0,0,1-4-9.45,48,48,0,0,1-1.53-12.82V344.1H321.19V329.78h17.62V308.72l-.38-.19a7.51,7.51,0,0,1-1.24.29,9.4,9.4,0,0,1-1.24.09,7.72,7.72,0,0,1-3.18-.67,8.68,8.68,0,0,1-2.68-1.81,9,9,0,0,1-1.84-2.7,8,8,0,0,1-.7-3.34,9.73,9.73,0,0,1,.76-3.63,10.64,10.64,0,0,1,2.32-3.5,12.61,12.61,0,0,1,3.92-2.64,13.47,13.47,0,0,1,5.53-1.05,12.7,12.7,0,0,1,7.32,2,15.1,15.1,0,0,1,4.71,5.25,24.56,24.56,0,0,1,2.54,7.32,44.33,44.33,0,0,1,.77,8.21v17.43h56.5V344.1h-56.5v38.43a53.63,53.63,0,0,0,.6,8.68,27.66,27.66,0,0,0,1.59,6,12.92,12.92,0,0,0,2.23,3.76,10.31,10.31,0,0,0,2.45,2.06,6.3,6.3,0,0,0,2.29.86A12.09,12.09,0,0,0,366.36,404Z" transform="translate(-44.63 -44.02)" style="fill:#fff"/></svg>